<svg xmlns="http://www.w3.org/2000/svg" xmlns:xlink="http://www.w3.org/1999/xlink" width="1920" zoomAndPan="magnify" viewBox="0 0 1440 809.999993" height="1080" preserveAspectRatio="xMidYMid meet" version="1.0"><defs><clipPath id="37d1304333"><rect x="0" width="792" y="0" height="793"/></clipPath></defs><g transform="matrix(1, 0, 0, 1, 324, 8)"><g clip-path="url(#37d1304333)"><path fill="currentColor" d="M 470.613281 319.769531 C 453.910156 325.457031 448.132812 328.769531 440.539062 337.011719 C 433.707031 344.425781 428.984375 353.445312 426.851562 363.160156 C 425.753906 368.160156 425.421875 367.53125 421.992188 353.972656 C 417.359375 335.644531 413.605469 329.976562 406.109375 329.976562 C 393.96875 329.976562 381.882812 338.8125 372.824219 354.308594 C 365.933594 366.105469 351.425781 384.121094 345.914062 387.734375 C 343.628906 389.230469 340.359375 390 338.382812 389.503906 C 336.464844 389.023438 327.871094 382.464844 319.289062 374.933594 C 299.632812 357.679688 279.808594 342.933594 274.480469 341.59375 C 272.222656 341.027344 268.550781 339.609375 266.316406 338.445312 C 259.554688 334.917969 252.585938 335.796875 246.878906 340.898438 C 241.746094 345.484375 241.742188 345.5 241.128906 363.40625 C 240.792969 373.261719 241.277344 385.972656 242.214844 391.652344 C 243.148438 397.332031 244.632812 409.101562 245.511719 417.808594 C 246.390625 426.511719 247.886719 437.195312 248.832031 441.546875 C 249.78125 445.898438 250.808594 453.714844 251.121094 458.914062 C 251.59375 466.789062 252.390625 468.976562 255.871094 471.972656 C 263.8125 478.804688 280.730469 476.332031 297.953125 465.832031 L 305.167969 461.429688 L 317.105469 466.066406 C 331.539062 471.671875 337.441406 471.203125 350.175781 463.445312 C 358.789062 458.199219 359.1875 458.121094 369.402344 459.566406 C 380.078125 461.078125 384.421875 462.75 391.050781 467.894531 C 394 470.183594 397.578125 470.824219 407.429688 470.824219 C 419.46875 470.824219 420.234375 470.605469 424.59375 465.9375 L 429.15625 461.054688 L 433.535156 464.5 C 435.945312 466.394531 440.316406 468.949219 443.253906 470.175781 C 453.589844 474.496094 461.402344 473.078125 497.363281 460.347656 C 516.132812 453.703125 532.835938 447.28125 534.484375 446.078125 C 537.40625 443.941406 537.410156 443.335938 534.699219 421.351562 C 533.171875 408.957031 531.519531 396.5 531.035156 393.671875 C 530.257812 389.191406 530.582031 388.53125 533.546875 388.53125 C 537.953125 388.53125 565.3125 370.160156 565.3125 367.199219 C 565.3125 363.21875 561.710938 356.878906 559.449219 356.878906 C 556.667969 356.878906 533.914062 372.011719 529.707031 376.65625 C 527.964844 378.578125 523.597656 380.972656 520.003906 381.972656 C 511.4375 384.363281 510.277344 386.003906 507.410156 399.828125 C 506.078125 406.234375 503.953125 413.070312 502.6875 415.015625 C 496.667969 424.261719 484.351562 426.761719 475.582031 420.519531 C 468.546875 415.507812 464.007812 401.222656 463.878906 383.675781 C 463.769531 368.796875 464.699219 363.554688 468.957031 355.050781 C 472.96875 347.039062 479.058594 342.636719 486.125 342.636719 C 493.109375 342.636719 497.535156 346.796875 500.429688 356.085938 C 504.199219 368.183594 511.542969 372.277344 520.941406 367.523438 C 531.597656 362.128906 524.648438 332.398438 510.40625 322.472656 C 499.273438 314.714844 487.75 313.933594 470.613281 319.769531 M 476.691406 321.4375 C 458.417969 328.054688 446.320312 342.859375 441.175781 364.921875 C 439.929688 370.25 438.511719 375.011719 438.019531 375.503906 C 433.640625 379.882812 437.902344 358.347656 443.703125 346.796875 C 445.507812 343.203125 448.777344 337.871094 450.96875 334.953125 C 454.414062 330.355469 454.523438 329.871094 451.792969 331.332031 C 447.28125 333.746094 439.273438 343.242188 435.488281 350.660156 C 430.792969 359.863281 425.507812 380.261719 425.679688 388.53125 C 426.371094 422.085938 428.414062 445.546875 431.707031 457.691406 C 431.992188 458.738281 435.230469 461.589844 438.910156 464.023438 C 444.617188 467.796875 447.128906 468.429688 456 468.3125 C 464.722656 468.195312 471.394531 466.367188 497.261719 456.992188 C 514.238281 450.839844 529.457031 445.273438 531.085938 444.621094 C 534.359375 443.308594 534.441406 445.417969 529.714844 409.894531 C 526.273438 384.03125 526.105469 383.480469 522.003906 384.652344 C 515.90625 386.398438 511.8125 392.644531 510.648438 401.976562 C 508.832031 416.5 500.058594 426.246094 487.554688 427.617188 C 479.382812 428.511719 471.570312 424.097656 466.765625 415.867188 C 462.417969 408.421875 458.964844 386.601562 460.183594 374.289062 C 463.773438 338.054688 493.539062 324.875 503.726562 355.007812 C 505.292969 359.648438 507.738281 363.269531 510.265625 364.699219 C 513.871094 366.730469 514.777344 366.671875 518.648438 364.132812 C 522.769531 361.433594 522.949219 360.800781 522.148438 351.960938 C 519.945312 327.6875 498.746094 313.457031 476.691406 321.4375 M 400.507812 342.582031 L 396.769531 345.695312 L 400.929688 345.75 C 407.253906 345.828125 408.390625 348.496094 406.988281 360 C 406.269531 365.863281 406.359375 371.398438 407.1875 372.949219 C 407.988281 374.441406 408.671875 379.449219 408.710938 384.074219 C 408.75 388.699219 409.699219 396.757812 410.820312 401.980469 L 412.859375 411.476562 L 413.675781 394.859375 C 414.246094 383.261719 413.855469 376.332031 412.382812 371.914062 C 411.21875 368.433594 410.257812 361.535156 410.246094 356.585938 C 410.222656 347.195312 408.164062 339.472656 405.691406 339.472656 C 404.894531 339.472656 402.5625 340.871094 400.507812 342.582031 M 255.273438 351.167969 C 253.773438 352.976562 254.589844 353.480469 259.828125 353.980469 C 266.933594 354.65625 267.476562 354.234375 263.441406 351.167969 C 259.851562 348.445312 257.535156 348.445312 255.273438 351.167969 M 275.210938 356.316406 C 274.675781 356.855469 276.699219 360.179688 279.71875 363.703125 C 282.734375 367.226562 285.199219 370.691406 285.199219 371.40625 C 285.199219 372.121094 287.304688 372.703125 289.875 372.703125 C 297.691406 372.703125 301.808594 375.65625 314.511719 390.351562 C 325.578125 403.15625 335.84375 411.5 335.84375 407.691406 C 335.84375 406.867188 336.246094 405.140625 336.742188 403.851562 C 337.367188 402.226562 336.019531 400.972656 332.351562 399.761719 C 329.21875 398.726562 321.582031 392.472656 313.644531 384.441406 C 306.269531 376.972656 297.386719 368.914062 293.90625 366.535156 C 282.664062 358.839844 276.214844 355.316406 275.210938 356.316406 M 555.816406 361.523438 C 555.816406 362.335938 556.558594 364.945312 557.460938 367.320312 C 559.554688 372.824219 563.027344 370.089844 561.527344 364.117188 C 560.582031 360.347656 555.816406 358.183594 555.816406 361.523438 M 543.554688 368.769531 C 534.847656 374.640625 533.886719 376.574219 537.34375 381.300781 C 539.328125 384.015625 539.886719 383.878906 547.601562 378.832031 C 555.96875 373.359375 557.300781 370.585938 553.839844 365.867188 C 552.023438 363.394531 551.175781 363.632812 543.554688 368.769531 M 531.578125 380.066406 C 529.628906 382.011719 530.449219 385.363281 532.871094 385.363281 C 535.507812 385.363281 535.835938 384 533.925781 380.988281 C 533.226562 379.886719 532.167969 379.472656 531.578125 380.066406 M 413.386719 417.015625 C 413.386719 419.902344 414.042969 421.546875 414.96875 420.972656 C 415.839844 420.433594 416.554688 418.652344 416.554688 417.015625 C 416.554688 415.378906 415.839844 413.597656 414.96875 413.058594 C 414.042969 412.488281 413.386719 414.128906 413.386719 417.015625 M 418.445312 451.042969 C 418.476562 453.652344 418.832031 454.527344 419.230469 452.988281 C 419.632812 451.449219 419.605469 449.3125 419.171875 448.242188 C 418.738281 447.171875 418.414062 448.429688 418.445312 451.042969 " fill-opacity="1" fill-rule="evenodd"/></g></g></svg>